<svg width="806" height="431" xmlns="http://www.w3.org/2000/svg" xmlns:xlink="http://www.w3.org/1999/xlink" xml:space="preserve" overflow="hidden"><g transform="translate(-252 -297)"><g><g><g><g><path d="M338.51 177.489C335.479 177.489 333.021 175.032 333.021 172 333.021 143.722 268.319 113.447 172 113.447 75.6807 113.447 10.9787 143.722 10.9787 172 10.9787 175.032 8.52095 177.489 5.48936 177.489 2.45777 177.489 0 175.031 0 172 0 152.463 18.5701 134.561 52.2887 121.591 84.3524 109.259 126.866 102.468 172 102.468 217.133 102.468 259.647 109.259 291.711 121.591 325.43 134.561 344 152.463 344 172 344 175.031 341.542 177.489 338.51 177.489Z" fill="#082947" fill-rule="nonzero" fill-opacity="1" transform="matrix(1 0 0 1.00291 256 323)"/><path d="M88.7395 321.692C87.8085 321.692 86.8643 321.455 85.9999 320.956 69.0795 311.187 62.8612 286.154 68.4896 250.468 73.8414 216.535 89.2167 176.32 111.784 137.233 134.351 98.1468 161.49 64.7239 188.201 43.1222 216.292 20.4058 241.079 13.2747 258 23.0429 260.625 24.5587 261.525 27.9159 260.009 30.5413 258.492 33.1667 255.136 34.064 252.51 32.5504 228.024 18.4106 169.45 59.3092 121.291 142.723 73.1321 226.138 67.0009 297.31 91.4893 311.449 94.1147 312.964 95.0142 316.322 93.4984 318.947 92.4818 320.709 90.6366 321.692 88.7395 321.692Z" fill="#274B6D" fill-rule="nonzero" fill-opacity="1" transform="matrix(1 0 0 1.00291 256 323)"/><path d="M241.257 325.224C226.304 325.225 208.08 316.954 188.201 300.878 161.49 279.275 134.351 245.853 111.784 206.766 89.2167 167.679 73.8414 127.464 68.4896 93.5313 62.8619 57.8454 69.0803 32.8125 85.9999 23.0436 88.6253 21.5285 91.9826 22.4266 93.4984 25.0527 95.0142 27.6781 94.1147 31.0354 91.4893 32.5512 78.9648 39.7825 74.5338 61.3857 79.3344 91.8209 84.4812 124.455 99.3823 163.327 121.291 201.276 163.169 273.811 212.925 314.195 241.292 314.2 245.547 314.201 249.316 313.293 252.51 311.449 255.136 309.934 258.493 310.832 260.009 313.458 261.525 316.083 260.625 319.44 258 320.956 253.054 323.812 247.433 325.224 241.257 325.224Z" fill="#6DA8D6" fill-rule="nonzero" fill-opacity="1" transform="matrix(1 0 0 1.00291 256 323)"/><path d="M172 241.532C126.866 241.532 84.3517 234.74 52.2887 222.408 18.5701 209.439 0 191.537 0 172 0 168.968 2.45777 166.511 5.48936 166.511 8.52095 166.511 10.9787 168.968 10.9787 172 10.9787 200.277 75.6807 230.553 172 230.553 268.319 230.553 333.021 200.277 333.021 172 333.021 168.968 335.479 166.511 338.51 166.511 341.542 166.511 344 168.968 344 172 344 191.537 325.43 209.439 291.711 222.408 259.648 234.74 217.134 241.532 172 241.532Z" fill="#082947" fill-rule="nonzero" fill-opacity="1" transform="matrix(1 0 0 1.00291 256 323)"/><path d="M50.7927 135.446C50.7927 143.53 44.2389 150.084 36.1544 150.084 28.0699 150.084 21.5161 143.53 21.5161 135.446 21.5161 127.361 28.0699 120.808 36.1544 120.808 44.2389 120.808 50.7927 127.361 50.7927 135.446Z" fill="#6DA8D6" fill-rule="nonzero" fill-opacity="1" transform="matrix(1 0 0 1.00291 256 323)"/><path d="M223.194 308.684C223.194 316.767 216.642 323.32 208.558 323.32 200.475 323.32 193.922 316.767 193.922 308.684 193.922 300.601 200.475 294.048 208.558 294.048 216.642 294.048 223.194 300.601 223.194 308.684Z" fill="#F2484B" fill-rule="nonzero" fill-opacity="1" transform="matrix(1 0 0 1.00291 256 323)"/><path d="M86.6169 72.125C86.6169 80.2083 80.0641 86.7611 71.9809 86.7611 63.8976 86.7611 57.3448 80.2083 57.3448 72.125 57.3448 64.0417 63.8976 57.4889 71.9809 57.4889 80.0641 57.4889 86.6169 64.0417 86.6169 72.125Z" fill="#F2484B" fill-rule="nonzero" fill-opacity="1" transform="matrix(1 0 0 1.00291 256 323)"/><path d="M204.936 172C204.936 190.19 190.19 204.936 172 204.936 153.81 204.936 139.064 190.19 139.064 172 139.064 153.81 153.81 139.064 172 139.064 190.19 139.064 204.936 153.81 204.936 172Z" fill="#F48205" fill-rule="nonzero" fill-opacity="1" transform="matrix(1 0 0 1.00291 256 323)"/><path d="M102.742 325.224C96.5651 325.224 90.9469 323.813 85.9999 320.957 83.3746 319.441 82.475 316.084 83.9908 313.458 85.5066 310.832 88.8639 309.934 91.4893 311.449 115.978 325.59 174.549 284.691 222.708 201.277 244.618 163.328 259.519 124.456 264.665 91.8216 269.465 61.3864 265.035 39.7832 252.51 32.5519 249.885 31.0361 248.986 27.6788 250.501 25.0534 252.017 22.4273 255.374 21.5285 258 23.0443 274.92 32.8132 281.139 57.8461 275.51 93.5321 270.158 127.465 254.783 167.679 232.216 206.767 209.649 245.854 182.51 279.276 155.799 300.878 135.921 316.953 117.695 325.224 102.742 325.224Z" fill="#274B6D" fill-rule="nonzero" fill-opacity="1" transform="matrix(1 0 0 1.00291 256 323)"/><path d="M255.26 321.692C253.363 321.692 251.518 320.708 250.501 318.947 248.986 316.322 249.885 312.964 252.51 311.449 276.999 297.31 270.868 226.137 222.708 142.723 174.549 59.3092 115.978 18.4135 91.4893 32.5512 88.8639 34.0655 85.5066 33.1682 83.9908 30.5421 82.475 27.9167 83.3746 24.5594 85.9999 23.0436 102.921 13.274 127.709 20.4058 155.799 43.1229 182.511 64.7246 209.65 98.1475 232.216 137.234 254.783 176.321 270.158 216.535 275.51 250.469 281.138 286.154 274.919 311.187 258 320.957 257.135 321.455 256.191 321.692 255.26 321.692Z" fill="#6DA8D6" fill-rule="nonzero" fill-opacity="1" transform="matrix(1 0 0 1.00291 256 323)"/><path d="M286.655 72.125C286.655 80.2083 280.102 86.7611 272.019 86.7611 263.936 86.7611 257.383 80.2083 257.383 72.125 257.383 64.0417 263.936 57.4889 272.019 57.4889 280.102 57.4889 286.655 64.0417 286.655 72.125Z" fill="#6DA8D6" fill-rule="nonzero" fill-opacity="1" transform="matrix(1 0 0 1.00291 256 323)"/></g></g></g><text fill="#0091CD" fill-opacity="1" font-family="Playfair Display,Playfair Display_MSFontService,sans-serif" font-style="italic" font-variant="normal" font-weight="700" font-stretch="normal" font-size="128" text-anchor="start" direction="ltr" writing-mode="lr-tb" unicode-bidi="normal" text-decoration="none" transform="matrix(1 0 0 1 634.901 465)">Story</text><text fill="#0091CD" fill-opacity="1" font-family="Playfair Display,Playfair Display_MSFontService,sans-serif" font-style="italic" font-variant="normal" font-weight="700" font-stretch="normal" font-size="128" text-anchor="start" direction="ltr" writing-mode="lr-tb" unicode-bidi="normal" text-decoration="none" transform="matrix(1 0 0 1 944.849 465)"> </text><text fill="#0091CD" fill-opacity="1" font-family="Playfair Display,Playfair Display_MSFontService,sans-serif" font-style="italic" font-variant="normal" font-weight="700" font-stretch="normal" font-size="128" text-anchor="start" direction="ltr" writing-mode="lr-tb" unicode-bidi="normal" text-decoration="none" transform="matrix(1 0 0 1 634.901 619)">B</text><text fill="#0091CD" fill-opacity="1" font-family="Playfair Display,Playfair Display_MSFontService,sans-serif" font-style="italic" font-variant="normal" font-weight="700" font-stretch="normal" font-size="128" text-anchor="start" direction="ltr" writing-mode="lr-tb" unicode-bidi="normal" text-decoration="none" transform="matrix(1 0 0 1 721.985 619)">ook</text><text fill="#0091CD" fill-opacity="1" font-family="Playfair Display,Playfair Display_MSFontService,sans-serif" font-style="italic" font-variant="normal" font-weight="700" font-stretch="normal" font-size="128" text-anchor="start" direction="ltr" writing-mode="lr-tb" unicode-bidi="normal" text-decoration="none" transform="matrix(1 0 0 1 928.808 619)"> </text></g></g></svg>